<svg width="208" height="163" viewBox="0 0 208 163" fill="none" xmlns="http://www.w3.org/2000/svg">
<path d="M205 81.5C205 70.7973 202.388 60.1993 197.312 50.3113C192.236 40.4233 184.797 31.4388 175.418 23.8708C166.039 16.3028 154.905 10.2996 142.651 6.20382C130.397 2.10806 117.264 -4.67831e-07 104 0C90.7365 4.67831e-07 77.6029 2.10806 65.349 6.20382C53.0951 10.2996 41.9609 16.3028 32.5822 23.8708C23.2035 31.4388 15.7639 40.4233 10.6882 50.3113C5.61244 60.1993 3 70.7973 3 81.5H45.8713C45.8713 75.3402 47.3749 69.2408 50.2961 63.5499C53.2174 57.8591 57.4991 52.6882 62.8968 48.3326C68.2946 43.977 74.7026 40.5219 81.7551 38.1647C88.8076 35.8074 96.3664 34.5942 104 34.5942C111.634 34.5942 119.192 35.8074 126.245 38.1647C133.297 40.5219 139.705 43.977 145.103 48.3326C150.501 52.6882 154.783 57.859 157.704 63.5499C160.625 69.2408 162.129 75.3402 162.129 81.5H205Z" fill="white"/>
<path d="M205 81.5C205 92.2027 202.388 102.801 197.312 112.689C192.236 122.577 184.797 131.561 175.418 139.129C166.039 146.697 154.905 152.7 142.651 156.796C130.397 160.892 117.264 163 104 163C90.7365 163 77.6029 160.892 65.349 156.796C53.0951 152.7 41.9609 146.697 32.5822 139.129C23.2035 131.561 15.7639 122.577 10.6882 112.689C5.61244 102.801 3 92.2027 3 81.5H45.8713C45.8713 87.6598 47.3749 93.7592 50.2961 99.4501C53.2174 105.141 57.4991 110.312 62.8968 114.667C68.2946 119.023 74.7026 122.478 81.7551 124.835C88.8076 127.193 96.3664 128.406 104 128.406C111.634 128.406 119.192 127.193 126.245 124.835C133.297 122.478 139.705 119.023 145.103 114.667C150.501 110.312 154.783 105.141 157.704 99.4501C160.625 93.7592 162.129 87.6598 162.129 81.5H205Z" fill="white"/>
<path d="M0 37C0 31.4772 4.47715 27 10 27H198C203.523 27 208 31.4772 208 37V125C208 130.523 203.523 135 198 135H10C4.47715 135 0 130.523 0 125V37Z" fill="white"/>
<path d="M4 36C4 33.2386 6.23858 31 9 31H199C201.761 31 204 33.2386 204 36V126C204 128.761 201.761 131 199 131H9C6.23857 131 4 128.761 4 126V36Z" fill="#67B603"/>
<path d="M204 78.5C204 99.8499 193.464 120.325 174.711 135.422C155.957 150.519 130.522 159 104 159C77.4784 159 52.043 150.519 33.2893 135.422C14.5357 120.325 4 99.8499 4 78.5L204 78.5Z" fill="#67B603"/>
<path d="M204 84.5C204 63.1501 193.464 42.6746 174.711 27.5779C155.957 12.4812 130.522 4 104 4C77.4784 4 52.043 12.4812 33.2893 27.5779C14.5357 42.6746 4 63.1501 4 84.5L204 84.5Z" fill="#67B603"/>
<path d="M8 38C8 36.3431 9.34315 35 11 35H197C198.657 35 200 36.3431 200 38V124C200 125.657 198.657 127 197 127H11C9.34315 127 8 125.657 8 124V38Z" fill="#9C1E21"/>
<path d="M200 78.5C200 88.5461 197.517 98.4939 192.692 107.775C187.868 117.057 180.797 125.49 171.882 132.594C162.968 139.697 152.385 145.332 140.738 149.177C129.09 153.021 116.607 155 104 155C91.3931 155 78.9096 153.021 67.2624 149.177C55.6151 145.332 45.0322 139.697 36.1177 132.594C27.2033 125.49 20.132 117.057 15.3076 107.775C10.4831 98.4939 8 88.5461 8 78.5L200 78.5Z" fill="#9C1E21"/>
<path d="M200 84.5C200 74.4539 197.517 64.5061 192.692 55.2247C187.868 45.9433 180.797 37.51 171.882 30.4063C162.968 23.3026 152.385 17.6677 140.738 13.8232C129.09 9.97873 116.607 8 104 8C91.3931 8 78.9096 9.97873 67.2624 13.8232C55.6151 17.6677 45.0322 23.3027 36.1177 30.4063C27.2033 37.51 20.132 45.9433 15.3076 55.2247C10.4831 64.5061 8 74.4539 8 84.5L200 84.5Z" fill="#9C1E21"/>
<path d="M12 40C12 39.4477 12.4477 39 13 39H195C195.552 39 196 39.4477 196 40V122C196 122.552 195.552 123 195 123H13C12.4477 123 12 122.552 12 122V40Z" fill="white"/>
<path d="M196 80C196 98.8304 186.307 116.889 169.054 130.205C151.8 143.52 128.4 151 104 151C79.6001 151 56.1995 143.52 38.9462 130.205C21.6928 116.89 12 98.8304 12 80L196 80Z" fill="white"/>
<path d="M196 83.5C196 64.537 186.307 46.3507 169.054 32.9419C151.8 19.533 128.4 12 104 12C79.6001 12 56.1995 19.533 38.9462 32.9419C21.6928 46.3507 12 64.537 12 83.5L196 83.5Z" fill="white"/>
<path d="M58.9395 103.914C58.9395 104.667 58.8464 105.34 58.6602 105.933C58.474 106.525 58.2201 107.05 57.8984 107.507C57.5853 107.955 57.2214 108.34 56.8066 108.662C56.3919 108.984 55.9561 109.25 55.499 109.462C55.0505 109.665 54.5934 109.813 54.1279 109.906C53.6709 109.999 53.2393 110.046 52.833 110.046L59.7266 116H54.623L47.7422 110.046H45.3682V106.745H52.833C53.2477 106.711 53.6243 106.627 53.9629 106.491C54.3099 106.347 54.6061 106.157 54.8516 105.92C55.1055 105.683 55.3001 105.399 55.4355 105.069C55.571 104.731 55.6387 104.346 55.6387 103.914V101.832C55.6387 101.646 55.6133 101.506 55.5625 101.413C55.5202 101.312 55.4609 101.24 55.3848 101.197C55.3171 101.146 55.2409 101.117 55.1562 101.108C55.0801 101.1 55.0081 101.096 54.9404 101.096H44.0479V116H40.7471V99.458C40.7471 99.2295 40.7894 99.0137 40.874 98.8105C40.9587 98.6074 41.0729 98.4297 41.2168 98.2773C41.3691 98.125 41.5469 98.0065 41.75 97.9219C41.9531 97.8372 42.1732 97.7949 42.4102 97.7949H54.9404C55.6768 97.7949 56.2988 97.9303 56.8066 98.2012C57.3145 98.4635 57.7249 98.7979 58.0381 99.2041C58.3597 99.6019 58.5882 100.034 58.7236 100.499C58.8675 100.965 58.9395 101.4 58.9395 101.807V103.914ZM81.334 116H76.6494L69.2227 108.561H66.8994V105.234H69.2227L76.6494 97.7949H81.334L71.9775 106.897L81.334 116ZM65.5791 116H62.2783V97.7949H65.5791V116ZM106.763 108.561H96.3271V105.234H106.763V108.561ZM108.235 101.096H95.0068V116H91.7061V99.458C91.7061 99.2295 91.7484 99.0137 91.833 98.8105C91.9176 98.6074 92.0319 98.4297 92.1758 98.2773C92.3281 98.125 92.5059 98.0065 92.709 97.9219C92.9121 97.8372 93.1322 97.7949 93.3691 97.7949H108.235V101.096ZM129.881 108.637C129.881 109.745 129.69 110.765 129.31 111.696C128.929 112.627 128.4 113.431 127.723 114.108C127.046 114.785 126.242 115.314 125.311 115.695C124.388 116.068 123.381 116.254 122.289 116.254H117.82C116.729 116.254 115.717 116.068 114.786 115.695C113.855 115.314 113.051 114.785 112.374 114.108C111.697 113.431 111.164 112.627 110.774 111.696C110.394 110.765 110.203 109.745 110.203 108.637V105.158C110.203 104.058 110.394 103.042 110.774 102.111C111.164 101.172 111.697 100.368 112.374 99.6992C113.051 99.0221 113.855 98.4932 114.786 98.1123C115.717 97.7314 116.729 97.541 117.82 97.541H122.289C123.381 97.541 124.388 97.7314 125.311 98.1123C126.242 98.4932 127.046 99.0221 127.723 99.6992C128.4 100.368 128.929 101.172 129.31 102.111C129.69 103.042 129.881 104.058 129.881 105.158V108.637ZM126.58 105.158C126.58 104.507 126.474 103.918 126.263 103.394C126.06 102.86 125.768 102.408 125.387 102.035C125.014 101.654 124.562 101.362 124.028 101.159C123.504 100.948 122.924 100.842 122.289 100.842H117.82C117.177 100.842 116.589 100.948 116.056 101.159C115.531 101.362 115.078 101.654 114.697 102.035C114.316 102.408 114.02 102.86 113.809 103.394C113.605 103.918 113.504 104.507 113.504 105.158V108.637C113.504 109.288 113.605 109.881 113.809 110.414C114.02 110.939 114.316 111.392 114.697 111.772C115.078 112.145 115.531 112.437 116.056 112.648C116.589 112.852 117.177 112.953 117.82 112.953H122.264C122.907 112.953 123.491 112.852 124.016 112.648C124.549 112.437 125.006 112.145 125.387 111.772C125.768 111.392 126.06 110.939 126.263 110.414C126.474 109.881 126.58 109.288 126.58 108.637V105.158ZM152.25 108.637C152.25 109.745 152.06 110.765 151.679 111.696C151.298 112.627 150.769 113.431 150.092 114.108C149.415 114.785 148.611 115.314 147.68 115.695C146.757 116.068 145.75 116.254 144.658 116.254H140.189C139.098 116.254 138.086 116.068 137.155 115.695C136.224 115.314 135.42 114.785 134.743 114.108C134.066 113.431 133.533 112.627 133.144 111.696C132.763 110.765 132.572 109.745 132.572 108.637V105.158C132.572 104.058 132.763 103.042 133.144 102.111C133.533 101.172 134.066 100.368 134.743 99.6992C135.42 99.0221 136.224 98.4932 137.155 98.1123C138.086 97.7314 139.098 97.541 140.189 97.541H144.658C145.75 97.541 146.757 97.7314 147.68 98.1123C148.611 98.4932 149.415 99.0221 150.092 99.6992C150.769 100.368 151.298 101.172 151.679 102.111C152.06 103.042 152.25 104.058 152.25 105.158V108.637ZM148.949 105.158C148.949 104.507 148.843 103.918 148.632 103.394C148.429 102.86 148.137 102.408 147.756 102.035C147.383 101.654 146.931 101.362 146.397 101.159C145.873 100.948 145.293 100.842 144.658 100.842H140.189C139.546 100.842 138.958 100.948 138.425 101.159C137.9 101.362 137.447 101.654 137.066 102.035C136.686 102.408 136.389 102.86 136.178 103.394C135.975 103.918 135.873 104.507 135.873 105.158V108.637C135.873 109.288 135.975 109.881 136.178 110.414C136.389 110.939 136.686 111.392 137.066 111.772C137.447 112.145 137.9 112.437 138.425 112.648C138.958 112.852 139.546 112.953 140.189 112.953H144.633C145.276 112.953 145.86 112.852 146.385 112.648C146.918 112.437 147.375 112.145 147.756 111.772C148.137 111.392 148.429 110.939 148.632 110.414C148.843 109.881 148.949 109.288 148.949 108.637V105.158ZM173.68 108.383C173.68 109.492 173.485 110.511 173.096 111.442C172.715 112.373 172.186 113.177 171.509 113.854C170.832 114.523 170.028 115.048 169.097 115.429C168.166 115.81 167.154 116 166.062 116H157.15C156.913 116 156.693 115.958 156.49 115.873C156.287 115.788 156.109 115.674 155.957 115.53C155.813 115.378 155.699 115.2 155.614 114.997C155.53 114.794 155.487 114.574 155.487 114.337V99.458C155.487 99.2295 155.53 99.0137 155.614 98.8105C155.699 98.6074 155.813 98.4297 155.957 98.2773C156.109 98.125 156.287 98.0065 156.49 97.9219C156.693 97.8372 156.913 97.7949 157.15 97.7949H166.062C167.154 97.7949 168.166 97.9854 169.097 98.3662C170.028 98.7471 170.832 99.276 171.509 99.9531C172.186 100.622 172.715 101.426 173.096 102.365C173.485 103.296 173.68 104.312 173.68 105.412V108.383ZM170.379 105.412C170.379 104.769 170.273 104.181 170.062 103.647C169.858 103.114 169.566 102.661 169.186 102.289C168.805 101.908 168.348 101.616 167.814 101.413C167.29 101.201 166.706 101.096 166.062 101.096H158.788V112.699H166.062C166.706 112.699 167.29 112.598 167.814 112.395C168.348 112.183 168.805 111.891 169.186 111.519C169.566 111.138 169.858 110.685 170.062 110.16C170.273 109.627 170.379 109.035 170.379 108.383V105.412Z" fill="black"/>
<g filter="url(#filter0_d_107_31)">
<path d="M116.395 62.9227C105.709 69.5621 99.692 73.2536 88.9409 79.8206L77.5717 70.3498C77.0439 69.9102 77.1095 69.0797 77.6975 68.7246C96.3673 57.4474 111.058 49.063 116.62 42.7247C117.024 42.2637 117.744 42.2293 118.159 42.681C127.625 52.9856 123.884 58.2122 116.395 62.9227Z" fill="#0F29EF"/>
<path d="M116.137 39.4659L89.2991 55.9846C88.9315 56.2109 88.4601 56.1757 88.1301 55.8973L77.2879 46.7494C76.761 46.3048 76.8347 45.471 77.429 45.1217C96.2036 34.0869 110.869 25.7702 116.363 19.3C116.766 18.8262 117.497 18.7836 117.917 19.2415C127.363 29.5347 123.622 34.758 116.137 39.4659Z" fill="#FB4F17"/>
<path d="M105.508 69.665L88.9419 79.8202L93.8251 83.7912C100.325 89.4767 104.543 90.0973 113.386 85.1827L118.583 81.766C119.152 81.3923 119.189 80.5726 118.657 80.1485L105.508 69.665Z" fill="#FB4F17"/>
<path d="M77.5744 70.3514L88.941 79.8205L105.507 69.6652L93.0883 59.4529L77.6983 68.7266C77.1093 69.0815 77.046 69.9113 77.5744 70.3514Z" fill="#CE4D3A"/>
</g>
<defs>
<filter id="filter0_d_107_31" x="71.6336" y="15.6204" width="57.4652" height="80.1774" filterUnits="userSpaceOnUse" color-interpolation-filters="sRGB">
<feFlood flood-opacity="0" result="BackgroundImageFix"/>
<feColorMatrix in="SourceAlpha" type="matrix" values="0 0 0 0 0 0 0 0 0 0 0 0 0 0 0 0 0 0 127 0" result="hardAlpha"/>
<feOffset dy="2"/>
<feGaussianBlur stdDeviation="2.65"/>
<feComposite in2="hardAlpha" operator="out"/>
<feColorMatrix type="matrix" values="0 0 0 0 0 0 0 0 0 0 0 0 0 0 0 0 0 0 0.33 0"/>
<feBlend mode="normal" in2="BackgroundImageFix" result="effect1_dropShadow_107_31"/>
<feBlend mode="normal" in="SourceGraphic" in2="effect1_dropShadow_107_31" result="shape"/>
</filter>
</defs>
</svg>
